<svg width="26" height="21" viewBox="0 0 26 21" fill="none" xmlns="http://www.w3.org/2000/svg">
<path d="M0 7.83334H26V13.9583H0V7.83334Z" fill="#E6E7E8"/>
<path d="M21.9375 1.27084H4.0625C1.37028 1.27084 0 3.42552 0 6.08334V7.83334H26V6.08334C26 3.42552 24.6297 1.27084 21.9375 1.27084Z" fill="#FF9933"/>
<path d="M0 15.7083C0 18.3661 1.37028 20.5208 4.0625 20.5208H21.9375C24.6297 20.5208 26 18.3661 26 15.7083V13.9583H0V15.7083Z" fill="#128807"/>
<path fill-rule="evenodd" clip-rule="evenodd" d="M13.1236 8.08838C13.6426 8.08838 14.15 8.2542 14.5816 8.56485C15.0131 8.8755 15.3494 9.31702 15.5478 9.83354C15.7463 10.3501 15.798 10.9184 15.6964 11.4666C15.5949 12.0148 15.3446 12.5182 14.9773 12.9131C14.6099 13.3081 14.1421 13.5768 13.6329 13.6854C13.1237 13.7939 12.5961 13.7373 12.1168 13.5228C11.6374 13.3083 11.228 12.9455 10.9402 12.4803C10.6524 12.0151 10.4992 11.4684 10.5 10.9094C10.5012 10.1608 10.7781 9.44338 11.27 8.91449C11.7619 8.3856 12.4285 8.08849 13.1236 8.08838ZM11.3747 9.31119C11.4198 9.36632 11.4279 9.42538 11.3978 9.47482C11.3851 9.49758 11.3654 9.5149 11.3422 9.52382C11.3243 9.53096 11.3051 9.53334 11.2862 9.53075C11.2673 9.52816 11.2493 9.52068 11.2337 9.50894C11.1631 9.61784 11.101 9.73286 11.048 9.85282C11.1094 9.89613 11.1297 9.95038 11.1094 10.0103C11.0985 10.0408 11.077 10.0656 11.0495 10.0793C11.022 10.093 10.9905 10.0946 10.9619 10.0838C10.9327 10.1468 10.8681 10.4128 10.8673 10.4688C10.8942 10.4744 10.9183 10.49 10.9355 10.513C10.9536 10.5358 10.9629 10.5653 10.9615 10.5953C10.9538 10.6775 10.9067 10.7125 10.8348 10.7156C10.8234 10.7948 10.8246 11.0599 10.836 11.1119C10.9123 11.1207 10.9526 11.1566 10.9591 11.2191C10.968 11.2865 10.9379 11.3303 10.8648 11.3609C10.8868 11.4908 10.918 11.6186 10.9591 11.7437C10.9877 11.7344 11.0184 11.7355 11.0464 11.7468C11.0736 11.7594 11.0952 11.7813 11.1065 11.8115C11.1167 11.8351 11.1187 11.8596 11.1134 11.8854C11.1097 11.9046 11.1018 11.9226 11.0904 11.9379C11.0791 11.9533 11.0646 11.9656 11.048 11.9738C11.1025 12.0954 11.1626 12.2101 11.2337 12.3177C11.2971 12.284 11.3523 12.2919 11.3897 12.34C11.4061 12.3598 11.4155 12.3852 11.4161 12.4118C11.4174 12.4314 11.4142 12.451 11.4068 12.469C11.3994 12.487 11.3881 12.5028 11.3738 12.515C11.4551 12.6174 11.5416 12.711 11.6359 12.7972C11.6891 12.7469 11.7443 12.739 11.7919 12.7749C11.8134 12.7911 11.8284 12.8125 11.8353 12.8388C11.8403 12.8573 11.8413 12.8769 11.8384 12.896C11.8354 12.915 11.8286 12.9332 11.8183 12.949C11.9211 13.0251 12.0271 13.0908 12.138 13.1476C12.1811 13.0824 12.2302 13.0606 12.2834 13.0824C12.3066 13.0914 12.3267 13.1077 12.3411 13.1293C12.3614 13.1643 12.3643 13.2028 12.3525 13.2439C12.4695 13.2885 12.5873 13.3226 12.7092 13.3458C12.7332 13.2719 12.7746 13.2373 12.8298 13.2417C12.8554 13.2439 12.8786 13.2522 12.8989 13.271C12.9273 13.299 12.9408 13.3344 12.9383 13.3782C13.0634 13.3878 13.1857 13.3887 13.3072 13.3782C13.3161 13.2938 13.3474 13.2513 13.4104 13.2417C13.4343 13.2381 13.4586 13.2434 13.4794 13.2566C13.4947 13.2658 13.5077 13.2787 13.5177 13.2941C13.5277 13.3096 13.5343 13.3272 13.5371 13.3458C13.6598 13.3213 13.7788 13.2876 13.8938 13.2434C13.8837 13.1608 13.9023 13.1113 13.9539 13.0855C13.9727 13.0768 13.9933 13.0733 14.0137 13.0754C14.0348 13.0772 14.0539 13.0842 14.0693 13.0991C14.0843 13.1126 14.0969 13.1293 14.1116 13.1463C14.2223 13.09 14.3286 13.024 14.4293 12.949C14.3878 12.879 14.4122 12.8121 14.4459 12.7823C14.4577 12.7715 14.4713 12.7632 14.4861 12.7581C14.5008 12.753 14.5163 12.7511 14.5318 12.7525C14.5472 12.754 14.5622 12.7587 14.5759 12.7664C14.5896 12.7742 14.6018 12.7848 14.6117 12.7976C14.7055 12.711 14.7937 12.6169 14.8725 12.5159C14.8266 12.4594 14.8176 12.3999 14.8513 12.3488C14.865 12.3258 14.8859 12.309 14.9103 12.3015C14.9276 12.2956 14.9459 12.294 14.9639 12.297C14.9819 12.3 14.999 12.3073 15.0138 12.3186C15.0849 12.2083 15.1467 12.0941 15.1995 11.9743C15.1402 11.9314 15.1187 11.8811 15.1365 11.8238C15.143 11.7983 15.1573 11.7759 15.1772 11.7603C15.1929 11.7485 15.2111 11.7407 15.2301 11.7377C15.2491 11.7346 15.2686 11.7364 15.2868 11.7428C15.3133 11.6811 15.3791 11.4213 15.3827 11.3583C15.3546 11.3527 15.3293 11.3366 15.3112 11.3128C15.3018 11.3009 15.2947 11.2871 15.2904 11.2722C15.2861 11.2573 15.2848 11.2416 15.2864 11.2261C15.288 11.1984 15.2986 11.1722 15.3165 11.1522C15.3287 11.1383 15.3437 11.1276 15.3603 11.1208C15.3769 11.1139 15.3947 11.1112 15.4124 11.1128C15.4225 10.9805 15.4225 10.8475 15.4124 10.7151C15.3348 10.7068 15.2978 10.6744 15.2877 10.6084C15.2831 10.5834 15.2865 10.5575 15.2974 10.5349C15.3058 10.5174 15.3178 10.5023 15.3325 10.4906C15.3473 10.479 15.3643 10.4712 15.3823 10.4679C15.361 10.3372 15.3293 10.2087 15.2877 10.0838C15.2125 10.0974 15.1662 10.0755 15.1414 10.0195C15.135 10.0045 15.1314 9.98833 15.1308 9.97184C15.1303 9.95536 15.1328 9.93892 15.1382 9.92348C15.1436 9.90805 15.1518 9.89393 15.1623 9.88194C15.1729 9.86996 15.1855 9.86036 15.1995 9.85369C15.1469 9.73342 15.0848 9.61822 15.0138 9.50938C14.9484 9.54307 14.8952 9.53519 14.8578 9.48707C14.8412 9.46674 14.832 9.44064 14.8318 9.41357C14.8311 9.39434 14.8345 9.37519 14.8418 9.35764C14.8492 9.34009 14.8602 9.32463 14.8741 9.3125C14.7939 9.21137 14.7065 9.11703 14.6129 9.03032C14.5568 9.08194 14.5024 9.0885 14.4561 9.05263C14.435 9.03752 14.4196 9.0149 14.4126 8.98875C14.4075 8.9704 14.4064 8.95104 14.4094 8.93216C14.4124 8.91327 14.4193 8.89537 14.4297 8.87982C14.3284 8.80379 14.2215 8.73692 14.1099 8.67988C14.0681 8.74463 14.021 8.76607 13.9678 8.74682C13.9442 8.73869 13.9236 8.72277 13.9088 8.70132C13.8981 8.68424 13.8913 8.66469 13.8889 8.64425C13.8865 8.6238 13.8886 8.60304 13.895 8.58363C13.7791 8.53849 13.6598 8.50438 13.5383 8.48169C13.5152 8.55257 13.4733 8.58932 13.4193 8.58582C13.3941 8.58494 13.3698 8.5751 13.3503 8.55782C13.3358 8.54466 13.3245 8.52791 13.3173 8.50901C13.3102 8.49011 13.3074 8.46963 13.3092 8.44932C13.1865 8.43808 13.0631 8.43823 12.9403 8.44975C12.9318 8.5285 12.9001 8.57357 12.8461 8.58319C12.8218 8.58878 12.7965 8.58539 12.7742 8.57357C12.7576 8.56471 12.7432 8.55172 12.7321 8.53567C12.7211 8.51961 12.7138 8.50096 12.7108 8.48125C12.5894 8.50504 12.47 8.53942 12.3537 8.58407C12.3667 8.6615 12.3464 8.71225 12.2968 8.73982C12.2753 8.75163 12.2526 8.75644 12.2274 8.75163C12.2084 8.74885 12.1905 8.74081 12.1753 8.72831C12.1602 8.71581 12.1483 8.69927 12.1408 8.68032C12.0714 8.70832 11.8504 8.84613 11.8211 8.88069C11.8512 8.94544 11.8443 9.00275 11.8028 9.04388C11.7911 9.05502 11.7775 9.06351 11.7627 9.06884C11.7478 9.07418 11.7322 9.07626 11.7166 9.07495C11.701 9.07365 11.6859 9.06899 11.672 9.06124C11.6581 9.0535 11.6458 9.04283 11.6359 9.02988C11.5421 9.11618 11.4548 9.21024 11.3747 9.31119Z" fill="#010088"/>
<path fill-rule="evenodd" clip-rule="evenodd" d="M14.2471 13.0077C14.2422 13.002 14.2373 12.9981 14.2337 12.992C13.9975 12.6031 13.7607 12.2148 13.5232 11.8269C13.5179 11.816 13.5118 11.805 13.5069 11.7928C13.4517 11.6541 13.3976 11.5154 13.3412 11.3771C13.3393 11.37 13.3367 11.3631 13.3334 11.3566C13.3107 11.3658 13.29 11.3763 13.2656 11.3863L13.2737 11.4086C13.3245 11.543 13.3733 11.6777 13.4248 11.812C13.4387 11.8479 13.4443 11.8855 13.4517 11.9231C13.4915 12.124 13.5288 12.3256 13.5691 12.5269L13.7064 13.2457C13.7071 13.2474 13.7073 13.2493 13.7071 13.2511C13.7069 13.253 13.7062 13.2547 13.7052 13.2562L13.6995 13.2409C13.5882 12.8738 13.474 12.5072 13.3623 12.1401C13.3399 12.0684 13.32 11.9975 13.2957 11.9258C13.2843 11.8899 13.2806 11.8531 13.2753 11.816C13.2611 11.7118 13.2489 11.6068 13.2331 11.5027C13.2311 11.4778 13.2274 11.4533 13.2242 11.4292C13.2232 11.4192 13.2217 11.4093 13.2197 11.3995C13.1953 11.4021 13.173 11.4056 13.1486 11.4086C13.1486 11.4191 13.1494 11.4301 13.1502 11.441C13.1644 11.5692 13.1766 11.6978 13.1937 11.8256C13.2026 11.8956 13.1982 11.9643 13.1945 12.0343C13.1921 12.0933 13.1884 12.1524 13.186 12.2119C13.1787 12.3318 13.173 12.4512 13.1653 12.5706L13.1531 12.8174C13.1462 12.9574 13.138 13.097 13.1311 13.2361C13.1279 13.2755 13.1271 13.3157 13.1234 13.3542L13.1137 13.2216L13.1011 12.9346L13.0864 12.6787C13.0824 12.5912 13.0771 12.5041 13.0726 12.4166C13.069 12.3593 13.0669 12.302 13.0637 12.2456C13.0592 12.155 13.0539 12.0645 13.0499 11.9748C13.0459 11.927 13.047 11.8788 13.0531 11.8313C13.0617 11.7665 13.0682 11.7005 13.0755 11.6348C13.0836 11.5701 13.0905 11.5049 13.0978 11.441C13.0986 11.431 13.0986 11.4205 13.0998 11.4086L13.0288 11.3986C13.0267 11.4161 13.0231 11.4331 13.0202 11.4506C13.0033 11.5843 12.986 11.7179 12.9682 11.8514C12.9633 11.9035 12.9443 11.9516 12.928 12.0001C12.8029 12.4105 12.6773 12.8213 12.5506 13.2313C12.5477 13.2387 12.5465 13.2457 12.5413 13.2527C12.5413 13.2475 12.5413 13.2435 12.5433 13.2387C12.5957 12.9622 12.6485 12.6853 12.7029 12.4088C12.7379 12.225 12.774 12.0417 12.8086 11.8584L12.8183 11.8282C12.8707 11.6895 12.9211 11.5495 12.9747 11.4108C12.9766 11.4027 12.9793 11.3947 12.9828 11.3872C12.9605 11.3769 12.938 11.3668 12.9154 11.357C12.9126 11.3649 12.9081 11.3715 12.9057 11.3793C12.8496 11.5185 12.7948 11.658 12.7387 11.7971C12.7352 11.8076 12.7308 11.8177 12.7257 11.8273C12.486 12.2184 12.247 12.61 12.0087 13.002C12.0054 13.0079 12.0011 13.0131 11.9961 13.0173C11.9981 13.0103 12.0018 13.0046 12.0042 12.9985L12.5916 11.7442C12.5967 11.7328 12.603 11.7221 12.6103 11.7123L12.8614 11.3496C12.8667 11.3435 12.8699 11.3378 12.8748 11.3312C12.8541 11.315 12.8374 11.3001 12.8167 11.2831C12.8122 11.2888 12.8082 11.2936 12.8045 11.2993C12.7168 11.4178 12.6302 11.5373 12.5445 11.6554C12.5348 11.6663 12.5258 11.6777 12.5148 11.6878C12.1947 11.9962 11.8746 12.3029 11.5533 12.6118C11.5468 12.6175 11.5403 12.6236 11.5321 12.6275C11.5358 12.6236 11.5378 12.6188 11.5403 12.6157C11.8039 12.2985 12.0655 11.9818 12.328 11.6646C12.343 11.6471 12.358 11.6296 12.3723 11.6108C12.4023 11.5731 12.436 11.5399 12.4726 11.5101L12.7643 11.263C12.7708 11.2577 12.7757 11.252 12.783 11.2468C12.7686 11.2258 12.7537 11.2052 12.7383 11.1851C12.7318 11.1895 12.7265 11.1938 12.7204 11.1986C12.6087 11.2888 12.4966 11.378 12.3848 11.4686C12.3723 11.4787 12.359 11.4877 12.345 11.4953C11.9636 11.7026 11.5801 11.91 11.1978 12.1174C11.1905 12.1209 11.1836 12.1253 11.175 12.1253L11.1905 12.1135L11.9038 11.6103C12.0282 11.5224 12.1529 11.4345 12.2764 11.3461C12.2869 11.3395 12.2979 11.3338 12.3073 11.3286C12.4368 11.2695 12.566 11.21 12.6944 11.1505C12.7005 11.1479 12.7066 11.1453 12.7139 11.1413L12.6867 11.0691C12.679 11.0713 12.6741 11.0735 12.668 11.0757C12.5364 11.1321 12.406 11.1895 12.2735 11.2455C12.2463 11.2564 12.2167 11.2616 12.1878 11.2682L11.3002 11.4668C11.1884 11.4926 11.0747 11.518 10.9626 11.543C10.958 11.5441 10.9533 11.5435 10.9492 11.5412C10.98 11.5307 11.0109 11.5189 11.0414 11.508C11.4249 11.3719 11.808 11.2363 12.1903 11.0993C12.2203 11.0884 12.2524 11.0853 12.2829 11.0801C12.4064 11.0617 12.5295 11.0425 12.6518 11.0236C12.6593 11.0222 12.6667 11.0205 12.6741 11.0184C12.6717 10.993 12.668 10.9676 12.666 10.9414L12.6067 10.9484L12.3613 10.9803C12.3154 10.9869 12.2699 10.9921 12.2248 10.9983C12.2138 10.9996 12.2033 11 12.1927 10.9996L11.9343 10.9834L11.7816 10.9742L11.5183 10.9576L11.1344 10.9348C11.0418 10.9296 10.9516 10.923 10.8594 10.916C10.874 10.9147 10.8903 10.9121 10.9061 10.9121L11.2209 10.8928L11.6369 10.8675L11.9814 10.8465L12.1976 10.8325C12.2061 10.832 12.2163 10.8333 12.2248 10.8342L12.4726 10.8661L12.6481 10.8889H12.666C12.668 10.864 12.6717 10.8403 12.6741 10.8132C12.6591 10.8097 12.642 10.8071 12.627 10.804C12.5185 10.7878 12.4108 10.7708 12.3024 10.7537C12.2798 10.7509 12.2574 10.7477 12.2349 10.7441C12.2225 10.7423 12.2103 10.7392 12.1984 10.7349C11.8754 10.6207 11.5545 10.5056 11.2319 10.3915C11.1421 10.3598 11.0525 10.3277 10.963 10.2952C10.9552 10.293 10.9479 10.2893 10.9414 10.2843L10.9979 10.2965L11.6873 10.451C11.8717 10.4925 12.059 10.5336 12.2435 10.5756C12.2546 10.5783 12.2654 10.5819 12.276 10.5866C12.406 10.6417 12.5348 10.6986 12.666 10.7546L12.6855 10.7629C12.6944 10.7388 12.7042 10.7156 12.7139 10.6907C12.7073 10.6865 12.7004 10.6828 12.6932 10.6798C12.564 10.6211 12.4352 10.5612 12.3064 10.5013C12.2963 10.4967 12.2866 10.4913 12.2772 10.4851C11.9128 10.2283 11.55 9.97015 11.1852 9.7129C11.1804 9.71002 11.1765 9.70558 11.1742 9.70021L11.1888 9.70896C11.552 9.90583 11.9156 10.1027 12.2796 10.2991C12.3398 10.3315 12.3982 10.3705 12.4519 10.4146C12.5404 10.4886 12.6306 10.5595 12.7208 10.6321C12.7269 10.6369 12.7322 10.6413 12.7387 10.6456L12.7834 10.5848L12.7675 10.57L12.4373 10.2904C12.4259 10.2808 12.4169 10.2707 12.4072 10.2602C12.1196 9.91327 11.8315 9.5659 11.5447 9.21896C11.5406 9.21538 11.5374 9.21071 11.5354 9.2054C11.5439 9.20627 11.5472 9.2124 11.5508 9.21633C11.7251 9.38258 11.8978 9.54883 12.0708 9.71508L12.5185 10.1447C12.5266 10.1526 12.5343 10.1622 12.5417 10.171L12.798 10.5218C12.8045 10.5297 12.8094 10.538 12.8167 10.5485L12.8756 10.5C12.8719 10.4938 12.8671 10.489 12.8642 10.4833C12.7805 10.363 12.6973 10.2423 12.6128 10.1224C12.604 10.1083 12.596 10.0937 12.5888 10.0786C12.3938 9.66521 12.2004 9.25002 12.0066 8.83615C12.003 8.82827 11.9993 8.82215 11.9985 8.81383C12.0022 8.81821 12.0058 8.82215 12.0083 8.82608L12.4234 9.50946L12.7172 9.99071C12.7273 10.0091 12.7387 10.0283 12.7452 10.0485C12.8 10.1832 12.8528 10.3184 12.9061 10.4531C12.9097 10.4593 12.9122 10.4658 12.9158 10.4737L12.9833 10.4435L12.9759 10.4251C12.9252 10.2886 12.8756 10.1521 12.824 10.0165C12.8098 9.98196 12.8045 9.94608 12.7976 9.91021C12.7533 9.68227 12.7107 9.4539 12.6664 9.22552C12.6229 9.0059 12.5815 8.78802 12.5388 8.56752C12.538 8.56621 12.5388 8.56446 12.5404 8.56008L12.5762 8.6769C12.7037 9.08946 12.8301 9.5029 12.9552 9.91633C12.9658 9.94871 12.9694 9.98415 12.9739 10.0178C12.9889 10.1325 13.004 10.248 13.021 10.3635C13.0239 10.3853 13.0251 10.4072 13.0292 10.4313L13.0998 10.4216V10.3928C13.0897 10.3013 13.0787 10.2095 13.069 10.1185C13.0629 10.0651 13.0584 10.013 13.0515 9.96096C13.0474 9.92595 13.0474 9.89053 13.0515 9.85552C13.0543 9.79602 13.0584 9.73696 13.0608 9.6779L13.0808 9.32133C13.0844 9.25746 13.0856 9.19271 13.0893 9.12883C13.0946 9.04571 13.0986 8.96127 13.1031 8.87771C13.1068 8.81646 13.1096 8.75477 13.112 8.69396C13.1153 8.62177 13.1206 8.55002 13.1263 8.47827C13.1279 8.49796 13.1287 8.51808 13.1295 8.53908C13.1352 8.62702 13.1393 8.71496 13.1441 8.80333L13.1653 9.20408L13.1778 9.42896C13.1843 9.5589 13.19 9.68927 13.1969 9.81921C13.199 9.8389 13.1998 9.85727 13.201 9.87652C13.2063 9.92727 13.1969 9.97758 13.1929 10.0279L13.1669 10.2571C13.1628 10.3005 13.1567 10.3438 13.1518 10.3875C13.151 10.398 13.151 10.4094 13.1482 10.4221C13.1734 10.426 13.1961 10.4286 13.2213 10.4321C13.225 10.4133 13.2266 10.3958 13.2294 10.3775C13.2489 10.2353 13.2676 10.0931 13.2863 9.95002C13.2879 9.93952 13.292 9.92858 13.2944 9.91765C13.4269 9.48977 13.5569 9.06146 13.6885 8.63271C13.695 8.61302 13.6999 8.59421 13.71 8.5754C13.7089 8.58538 13.7074 8.5953 13.7056 8.60515C13.6463 8.9149 13.5845 9.22377 13.5256 9.53265C13.4992 9.67746 13.4712 9.82271 13.4431 9.96752C13.4411 9.97952 13.4376 9.99116 13.4326 10.0021L13.2757 10.4243C13.2729 10.4304 13.2709 10.437 13.268 10.4448C13.2924 10.4549 13.3123 10.465 13.3359 10.475L13.3452 10.454L13.5089 10.0397C13.5154 10.0257 13.5203 10.0121 13.5288 10.0008L14.2378 8.83615C14.2422 8.83002 14.2459 8.8239 14.2528 8.81952C14.2499 8.82565 14.2479 8.83177 14.2443 8.8379L13.6613 10.0848C13.6552 10.0966 13.6491 10.1084 13.6418 10.1189C13.5573 10.2401 13.4724 10.3613 13.3891 10.4816C13.3851 10.4885 13.3806 10.4951 13.3757 10.5013L13.4334 10.5498C13.4379 10.5446 13.4421 10.5391 13.446 10.5332C13.5321 10.4151 13.6178 10.2965 13.7052 10.1784C13.7148 10.1651 13.7255 10.1528 13.7373 10.1416C14.0582 9.83277 14.3795 9.52433 14.7009 9.21633C14.7062 9.21152 14.7098 9.20671 14.7183 9.20408L14.7078 9.21808C14.5766 9.37777 14.4453 9.53658 14.3121 9.6954C14.1537 9.88571 13.9972 10.0756 13.84 10.2659C13.8319 10.2755 13.8222 10.2838 13.8136 10.2917L13.4833 10.5713L13.4671 10.5853C13.4825 10.6063 13.4963 10.6264 13.5126 10.6474L13.5301 10.6334L13.8685 10.3604C13.8771 10.3538 13.886 10.3476 13.8953 10.342C14.2853 10.1311 14.6728 9.92115 15.0604 9.71027C15.0669 9.70721 15.0722 9.70458 15.0791 9.70458C15.0612 9.71727 15.0446 9.72952 15.0267 9.74133C14.6761 9.9894 14.3255 10.2375 13.9737 10.4855C13.9639 10.4916 13.955 10.4978 13.9444 10.5026C13.8148 10.563 13.684 10.6225 13.5557 10.6824L13.5349 10.6911C13.5459 10.7156 13.5536 10.7388 13.5634 10.7633L13.5821 10.7568C13.7125 10.7012 13.8421 10.643 13.9737 10.5892C14.0062 10.5752 14.0419 10.5691 14.0773 10.5612L14.6757 10.4273C14.8617 10.3862 15.0462 10.3442 15.2327 10.3026C15.2497 10.2987 15.2656 10.2948 15.2834 10.2913C15.2879 10.2913 15.292 10.2904 15.2985 10.293L15.2416 10.3131C14.8447 10.4545 14.449 10.5953 14.0521 10.7349C14.022 10.7463 13.9887 10.7493 13.9574 10.7546C13.8685 10.769 13.7807 10.7817 13.6942 10.7953C13.6625 10.8001 13.6312 10.8053 13.5995 10.8097L13.5764 10.8141C13.5788 10.8399 13.5825 10.864 13.5841 10.892L13.6454 10.885L13.8648 10.857C13.9197 10.8495 13.9769 10.8412 14.0342 10.8355C14.0598 10.8333 14.0858 10.836 14.1122 10.8373C14.1679 10.8399 14.2235 10.8451 14.2816 10.8478L14.6099 10.8688C14.6586 10.8718 14.7074 10.874 14.7578 10.8775L15.0925 10.8981C15.1717 10.9033 15.2534 10.9073 15.3322 10.9125C15.3517 10.9137 15.3713 10.9156 15.3907 10.9182L15.3314 10.9235L15.0856 10.9379L14.7813 10.9571L14.5518 10.9703C14.4462 10.9773 14.3385 10.9838 14.2321 10.9913C14.1736 10.9939 14.1134 11 14.0545 11.0005C14.0208 11.0013 13.9855 10.9943 13.9526 10.9904C13.8804 10.9813 13.8082 10.9719 13.736 10.9624L13.5975 10.9445H13.5841C13.5825 10.9698 13.5788 10.9948 13.5764 11.0215C13.7196 11.0443 13.8628 11.0666 14.0062 11.0884C14.0484 11.0941 14.0854 11.112 14.1252 11.1256L15.2806 11.5364C15.2881 11.5381 15.2952 11.5415 15.3013 11.5465C15.2916 11.5447 15.2822 11.543 15.2725 11.5421L14.269 11.3168L14.0042 11.2573C13.9956 11.2546 13.9843 11.2511 13.9749 11.2463C13.8445 11.1908 13.7137 11.1339 13.5825 11.0775L13.565 11.0709C13.5555 11.0949 13.5456 11.1186 13.5353 11.1422L13.5569 11.1531C13.6865 11.2126 13.8153 11.2717 13.944 11.3316C13.9542 11.3365 13.9643 11.3421 13.9749 11.35L15.0563 12.113C15.0616 12.1174 15.0685 12.1226 15.073 12.131C15.0677 12.1275 15.0616 12.1253 15.0572 12.1218L14.4937 11.8173C14.2971 11.7096 14.0988 11.6029 13.9002 11.4953C13.8875 11.4885 13.8756 11.4801 13.8648 11.4703C13.7531 11.3806 13.6402 11.2905 13.5284 11.2C13.5235 11.1954 13.5182 11.1913 13.5126 11.1877C13.4972 11.2078 13.4833 11.2275 13.4671 11.2485L13.4825 11.2616C13.5914 11.3553 13.7023 11.4489 13.8116 11.5421C13.824 11.5517 13.8354 11.5628 13.8453 11.5753L14.7062 12.6126C14.7097 12.6178 14.7124 12.6236 14.7143 12.6297C14.7098 12.6245 14.7037 12.621 14.6993 12.617C14.3763 12.306 14.0529 11.9966 13.7291 11.686C13.7218 11.679 13.7152 11.6711 13.7096 11.6624L13.4464 11.301C13.4427 11.2953 13.4383 11.2901 13.4338 11.2844C13.4151 11.301 13.3968 11.3159 13.3781 11.3334C13.3798 11.3386 13.3834 11.3443 13.3867 11.3496L13.6422 11.7162C13.6495 11.7269 13.656 11.7381 13.6617 11.7499C13.8555 12.1638 14.0488 12.5785 14.2422 12.9928C14.2454 12.9985 14.2474 13.0047 14.2483 13.0112H14.2471V13.0077Z" fill="#010088"/>
<path fill-rule="evenodd" clip-rule="evenodd" d="M14.2461 15.6743C14.2502 15.6785 14.2526 15.6832 14.2558 15.687C14.2538 15.6878 14.2538 15.6891 14.2514 15.6895C14.2506 15.6836 14.2477 15.6798 14.2469 15.6743H14.2461Z" fill="#010088"/>
</svg>
