<svg width="17" height="17" viewBox="0 0 17 17" fill="none" xmlns="http://www.w3.org/2000/svg">
<g clip-path="url(#clip0_1215_2404)">
<path d="M15.5165 1.31904L12.3752 0.594133C12.0339 0.515601 11.6835 0.693807 11.5446 1.01397L10.0948 4.39687C9.9679 4.69287 10.0525 5.04022 10.3032 5.24259L12.1336 6.74073C11.0462 9.05741 9.14634 10.9844 6.78134 12.093L5.2832 10.2626C5.07781 10.0119 4.73348 9.9273 4.43748 10.0542L1.05458 11.504C0.731393 11.6459 0.553187 11.9963 0.631719 12.3376L1.35662 15.4789C1.43214 15.8051 1.7221 16.0407 2.06341 16.0407C9.79876 16.0407 16.0783 9.77325 16.0783 2.02582C16.0783 1.68753 15.8457 1.39455 15.5165 1.31904Z" fill="white"/>
</g>
<defs>
<clipPath id="clip0_1215_2404">
<rect width="15.4647" height="15.4647" fill="white" transform="translate(0.613281 0.576172)"/>
</clipPath>
</defs>
</svg>
